<?xml version="1.0" encoding="UTF-8"?>
<svg xmlns="http://www.w3.org/2000/svg" viewBox="0 0 500 330">
  <defs>
    <style>
      .cls-1, .cls-2 {
        fill: #f9c9d6;
      }

      .cls-3 {
        fill: #eae65f;
      }

      .cls-4 {
        fill: #fff;
      }

      .cls-5, .cls-6 {
        fill: #c4d9f4;
      }

      .cls-6, .cls-2 {
        mix-blend-mode: multiply;
      }

      .cls-7 {
        isolation: isolate;
      }

      .cls-8 {
        stroke-width: 5px;
      }

      .cls-8, .cls-9 {
        fill: none;
        stroke: #000;
        stroke-linecap: round;
        stroke-miterlimit: 10;
      }

      .cls-9 {
        stroke-width: 5px;
      }
    </style>
  </defs>
  <g class="cls-7">
    <g id="_レイヤー_1" data-name="レイヤー 1">
      <g>
        <line class="cls-9" x1="148.56" y1="50.04" x2="163.74" y2="50.04"/>
        <line class="cls-9" x1="156.15" y1="42.45" x2="156.15" y2="57.63"/>
      </g>
      <g>
        <line class="cls-9" x1="343.56" y1="57.04" x2="358.74" y2="57.04"/>
        <line class="cls-9" x1="351.15" y1="49.45" x2="351.15" y2="64.63"/>
      </g>
      <g>
        <g>
          <rect class="cls-4" x="373.9" y="176.66" width="80.45" height="113" rx="7.5" ry="7.5"/>
          <path d="M446.85,179.16c2.76,0,5,2.24,5,5v98c0,2.76-2.24,5-5,5h-65.45c-2.76,0-5-2.24-5-5v-98c0-2.76,2.24-5,5-5h65.45m0-5h-65.45c-5.52,0-10,4.48-10,10v98c0,5.52,4.48,10,10,10h65.45c5.52,0,10-4.48,10-10v-98c0-5.52-4.48-10-10-10h0Z"/>
        </g>
        <g>
          <line class="cls-9" x1="405.46" y1="184.66" x2="405.46" y2="184.66"/>
          <line class="cls-9" x1="413.31" y1="184.66" x2="422.79" y2="184.66"/>
        </g>
      </g>
      <g>
        <g>
          <path class="cls-4" d="M229.31,244.75c-.99,0-1.91-.39-2.59-1.1-.69-.71-1.04-1.64-1.01-2.63l1.77-49.51c0-3.5,2.77-6.27,6.18-6.27h27.05c3.41,0,6.18,2.77,6.18,6.18l1.78,49.6c.04,.99-.32,1.92-1.01,2.63-.68,.71-1.61,1.1-2.59,1.1h-35.75Z"/>
          <path d="M260.7,187.74c2.03,0,3.68,1.65,3.68,3.68,0,.06,0,.12,0,.18l1.77,49.51c.01,.39-.16,.65-.31,.8-.15,.15-.41,.34-.79,.34h-35.75c-.39,0-.64-.18-.79-.34-.15-.15-.32-.42-.31-.8l1.77-49.51c0-.06,0-.12,0-.18,0-2.03,1.65-3.68,3.68-3.68h27.05m0-5h-27.05c-4.79,0-8.68,3.88-8.68,8.68l-1.77,49.51c-.12,3.45,2.64,6.32,6.1,6.32h35.75c3.46,0,6.22-2.87,6.1-6.32l-1.77-49.51c0-4.79-3.88-8.68-8.68-8.68h0Z"/>
        </g>
        <g>
          <rect class="cls-4" x="134.68" y="91.66" width="225" height="126" rx="7.5" ry="7.5"/>
          <path d="M352.18,94.16c2.76,0,5,2.24,5,5v111c0,2.76-2.24,5-5,5H142.18c-2.76,0-5-2.24-5-5V99.16c0-2.76,2.24-5,5-5h210m0-5H142.18c-5.52,0-10,4.48-10,10v111c0,5.52,4.48,10,10,10h210c5.52,0,10-4.48,10-10V99.16c0-5.52-4.48-10-10-10h0Z"/>
        </g>
        <g>
          <path class="cls-4" d="M214.91,255.66c-3.86,0-7-3.14-7-7s3.14-7,7-7h64.55c3.86,0,7,3.14,7,7s-3.14,7-7,7h-64.55Z"/>
          <path d="M279.46,244.16c2.48,0,4.5,2.02,4.5,4.5s-2.02,4.5-4.5,4.5h-64.55c-2.48,0-4.5-2.02-4.5-4.5s2.02-4.5,4.5-4.5h64.55m0-5h-64.55c-5.25,0-9.5,4.25-9.5,9.5s4.25,9.5,9.5,9.5h64.55c5.25,0,9.5-4.25,9.5-9.5s-4.25-9.5-9.5-9.5h0Z"/>
        </g>
        <line class="cls-9" x1="134.68" y1="195.66" x2="359.68" y2="195.66"/>
        <circle cx="247.18" cy="206.66" r="5"/>
      </g>
      <g>
        <g>
          <rect class="cls-4" x="49.61" y="183.66" width="161" height="98" rx="7.5" ry="7.5"/>
          <path d="M203.11,186.16c2.76,0,5,2.24,5,5v83c0,2.76-2.24,5-5,5H57.11c-2.76,0-5-2.24-5-5v-83c0-2.76,2.24-5,5-5H203.11m0-5H57.11c-5.52,0-10,4.48-10,10v83c0,5.52,4.48,10,10,10H203.11c5.52,0,10-4.48,10-10v-83c0-5.52-4.48-10-10-10h0Z"/>
        </g>
        <g>
          <path class="cls-4" d="M43.11,286.66c-4.14,0-7.5-3.36-7.5-7.5v-1.5H224.61v1.5c0,4.14-3.36,7.5-7.5,7.5H43.11Z"/>
          <path d="M222.01,280.16c-.46,2.28-2.48,4-4.9,4H43.11c-2.41,0-4.43-1.72-4.9-4H222.01m5.1-5H33.11v4c0,5.52,4.48,10,10,10H217.11c5.52,0,10-4.48,10-10v-4h0Z"/>
        </g>
        <g>
          <rect x="121.11" y="279.66" width="18" height="5"/>
          <polygon points="141.61 277.16 118.61 277.16 118.61 287.16 141.61 287.16 141.61 277.16 141.61 277.16"/>
        </g>
      </g>
      <g>
        <g>
          <rect class="cls-4" x="299.66" y="206.16" width="47.56" height="81.5" rx="7.5" ry="7.5"/>
          <path d="M339.72,208.66c2.76,0,5,2.24,5,5v66.5c0,2.76-2.24,5-5,5h-32.56c-2.76,0-5-2.24-5-5v-66.5c0-2.76,2.24-5,5-5h32.56m0-5h-32.56c-5.52,0-10,4.48-10,10v66.5c0,5.52,4.48,10,10,10h32.56c5.52,0,10-4.48,10-10v-66.5c0-5.52-4.48-10-10-10h0Z"/>
        </g>
        <g>
          <line class="cls-9" x1="314.78" y1="214.66" x2="314.78" y2="214.66"/>
          <line class="cls-9" x1="322.63" y1="214.66" x2="332.1" y2="214.66"/>
        </g>
      </g>
      <g>
        <g id="_リピートラジアル_" data-name="&amp;lt;リピートラジアル&amp;gt;">
          <line class="cls-8" x1="74.77" y1="121.52" x2="74.77" y2="131.29"/>
        </g>
        <g id="_リピートラジアル_-2" data-name="&amp;lt;リピートラジアル&amp;gt;">
          <line class="cls-8" x1="84.06" y1="128.27" x2="74.77" y2="131.29"/>
        </g>
        <g id="_リピートラジアル_-3" data-name="&amp;lt;リピートラジアル&amp;gt;">
          <line class="cls-8" x1="80.52" y1="139.19" x2="74.77" y2="131.29"/>
        </g>
        <g id="_リピートラジアル_-4" data-name="&amp;lt;リピートラジアル&amp;gt;">
          <line class="cls-8" x1="69.03" y1="139.19" x2="74.77" y2="131.29"/>
        </g>
        <g id="_リピートラジアル_-5" data-name="&amp;lt;リピートラジアル&amp;gt;">
          <line class="cls-8" x1="65.48" y1="128.27" x2="74.77" y2="131.29"/>
        </g>
      </g>
      <g>
        <g id="_リピートラジアル_-6" data-name="&amp;lt;リピートラジアル&amp;gt;">
          <line class="cls-8" x1="406.77" y1="127.52" x2="406.77" y2="137.29"/>
        </g>
        <g id="_リピートラジアル_-7" data-name="&amp;lt;リピートラジアル&amp;gt;">
          <line class="cls-8" x1="416.06" y1="134.27" x2="406.77" y2="137.29"/>
        </g>
        <g id="_リピートラジアル_-8" data-name="&amp;lt;リピートラジアル&amp;gt;">
          <line class="cls-8" x1="412.52" y1="145.19" x2="406.77" y2="137.29"/>
        </g>
        <g id="_リピートラジアル_-9" data-name="&amp;lt;リピートラジアル&amp;gt;">
          <line class="cls-8" x1="401.03" y1="145.19" x2="406.77" y2="137.29"/>
        </g>
        <g id="_リピートラジアル_-10" data-name="&amp;lt;リピートラジアル&amp;gt;">
          <line class="cls-8" x1="397.48" y1="134.27" x2="406.77" y2="137.29"/>
        </g>
      </g>
      <g>
        <g id="_リピートラジアル_-11" data-name="&amp;lt;リピートラジアル&amp;gt;">
          <line class="cls-8" x1="243.77" y1="35.52" x2="243.77" y2="45.29"/>
        </g>
        <g id="_リピートラジアル_-12" data-name="&amp;lt;リピートラジアル&amp;gt;">
          <line class="cls-8" x1="253.06" y1="42.27" x2="243.77" y2="45.28"/>
        </g>
        <g id="_リピートラジアル_-13" data-name="&amp;lt;リピートラジアル&amp;gt;">
          <line class="cls-8" x1="249.52" y1="53.19" x2="243.77" y2="45.29"/>
        </g>
        <g id="_リピートラジアル_-14" data-name="&amp;lt;リピートラジアル&amp;gt;">
          <line class="cls-8" x1="238.03" y1="53.19" x2="243.77" y2="45.29"/>
        </g>
        <g id="_リピートラジアル_-15" data-name="&amp;lt;リピートラジアル&amp;gt;">
          <line class="cls-8" x1="234.48" y1="42.27" x2="243.77" y2="45.29"/>
        </g>
      </g>
      <g>
        <g>
          <circle cx="240.68" cy="106.16" r="3"/>
          <circle cx="253.68" cy="106.16" r="3"/>
        </g>
        <path class="cls-8" d="M254.72,114.09c-1.42,2.71-4.26,4.57-7.54,4.57s-6.12-1.86-7.54-4.57"/>
      </g>
      <rect class="cls-5" x="58.27" y="192.16" width="144" height="30"/>
      <rect class="cls-6" x="375.12" y="189.16" width="78" height="30"/>
      <rect class="cls-6" x="135.27" y="100.16" width="222" height="30"/>
      <rect class="cls-6" x="301.27" y="220.16" width="46" height="57"/>
      <rect class="cls-1" x="58.27" y="227.16" width="67" height="42"/>
      <rect class="cls-2" x="374.62" y="224.16" width="79" height="32"/>
      <path class="cls-2" d="M299.27,281.16h48c0,4.58-3.71,8.29-8.29,8.29h-31.42c-4.58,0-8.29-3.71-8.29-8.29h0Z"/>
      <g>
        <g>
          <circle cx="123.27" cy="202.16" r="3"/>
          <circle cx="136.27" cy="202.16" r="3"/>
        </g>
        <path class="cls-8" d="M137.31,210.09c-1.42,2.71-4.26,4.57-7.54,4.57s-6.12-1.86-7.54-4.57"/>
      </g>
      <rect class="cls-2" x="175.18" y="136.16" width="67" height="42"/>
      <g>
        <g>
          <circle cx="401.62" cy="216.16" r="3"/>
          <circle cx="414.62" cy="216.16" r="3"/>
        </g>
        <path class="cls-8" d="M415.66,224.09c-1.42,2.71-4.26,4.57-7.54,4.57s-6.12-1.86-7.54-4.57"/>
      </g>
      <circle class="cls-3" cx="141.61" cy="237.97" r="10.34"/>
      <circle class="cls-3" cx="166.52" cy="237.97" r="10.34"/>
      <circle class="cls-3" cx="191.43" cy="237.97" r="10.34"/>
      <circle class="cls-3" cx="258.61" cy="146.97" r="10.34"/>
      <circle class="cls-3" cx="283.52" cy="146.97" r="10.34"/>
      <circle class="cls-3" cx="308.43" cy="146.97" r="10.34"/>
      <g>
        <circle class="cls-3" cx="390.45" cy="270.97" r="9.83"/>
        <circle class="cls-3" cx="414.12" cy="270.97" r="9.83"/>
        <circle class="cls-3" cx="437.8" cy="270.97" r="9.83"/>
      </g>
      <g>
        <g>
          <circle cx="321.94" cy="233.16" r="3"/>
          <circle cx="334.94" cy="233.16" r="3"/>
        </g>
        <path class="cls-8" d="M335.98,241.09c-1.42,2.71-4.26,4.57-7.54,4.57s-6.12-1.86-7.54-4.57"/>
      </g>
    </g>
  </g>
</svg>