<?xml version="1.0" standalone="no"?>
<!DOCTYPE svg PUBLIC "-//W3C//DTD SVG 20010904//EN"
 "http://www.w3.org/TR/2001/REC-SVG-20010904/DTD/svg10.dtd">
<svg version="1.0" xmlns="http://www.w3.org/2000/svg"
 width="700.000000pt" height="700.000000pt" viewBox="0 0 700.000000 700.000000"
 preserveAspectRatio="xMidYMid meet">
<metadata>
Created by potrace 1.14, written by Peter Selinger 2001-2017
</metadata>
<g transform="translate(0.000000,700.000000) scale(0.100000,-0.100000)"
fill="#000000" stroke="none">
<path d="M3523 6072 l-23 -3 0 -1711 0 -1711 -87 6 c-274 18 -545 143 -727
336 -105 111 -113 122 -184 241 -30 52 -78 118 -105 146 -179 189 -492 191
-678 4 -150 -151 -180 -370 -78 -572 144 -285 410 -577 701 -771 83 -56 283
-163 343 -185 17 -6 68 -25 115 -42 80 -29 261 -77 324 -85 15 -3 35 -6 45 -9
33 -10 175 -23 269 -25 l62 -1 0 -420 0 -420 1383 0 1382 0 0 2610 c0 2314 -2
2610 -15 2611 -58 2 -2710 3 -2727 1z"/>
<path d="M2176 5129 c-315 -48 -537 -347 -485 -655 15 -87 18 -98 56 -174 54
-106 144 -195 254 -249 46 -22 95 -43 109 -45 14 -3 36 -8 50 -11 39 -9 150
-7 206 4 119 23 229 85 311 175 187 204 202 514 37 730 -130 170 -334 255
-538 225z"/>
</g>
</svg>
