<?xml version="1.0" encoding="UTF-8"?>
<svg xmlns="http://www.w3.org/2000/svg" viewBox="0 0 500 330">
  <defs>
    <style>
      .cls-1 {
        fill: #fff;
      }

      .cls-2 {
        fill: #c8c8c8;
      }

      .cls-3 {
        stroke-linejoin: round;
      }

      .cls-3, .cls-4, .cls-5, .cls-6 {
        stroke: #000;
        stroke-linecap: round;
      }

      .cls-3, .cls-4, .cls-6 {
        stroke-width: 5px;
      }

      .cls-3, .cls-5, .cls-6 {
        fill: none;
      }

      .cls-7 {
        fill: #f9c9d6;
      }

      .cls-7, .cls-4 {
        mix-blend-mode: multiply;
      }

      .cls-4 {
        fill: #eae65f;
      }

      .cls-4, .cls-5, .cls-6 {
        stroke-miterlimit: 10;
      }

      .cls-8 {
        isolation: isolate;
      }

      .cls-5 {
        stroke-width: 5px;
      }
    </style>
  </defs>
  <g class="cls-8">
    <g id="_レイヤー_1" data-name="レイヤー 1">
      <g>
        <rect class="cls-1" x="195.37" y="71.24" width="130.47" height="91.35" rx="3.97" ry="3.97"/>
        <path d="M321.88,73.74c.81,0,1.47,.66,1.47,1.47v83.41c0,.81-.66,1.47-1.47,1.47h-122.54c-.81,0-1.47-.66-1.47-1.47V75.21c0-.81,.66-1.47,1.47-1.47h122.54m0-5h-122.54c-3.57,0-6.47,2.9-6.47,6.47v83.41c0,3.57,2.9,6.47,6.47,6.47h122.54c3.57,0,6.47-2.9,6.47-6.47V75.21c0-3.57-2.9-6.47-6.47-6.47h0Z"/>
      </g>
      <g>
        <line class="cls-6" x1="142.42" y1="76.34" x2="157.6" y2="76.34"/>
        <line class="cls-6" x1="150.01" y1="68.74" x2="150.01" y2="83.93"/>
      </g>
      <g>
        <line class="cls-6" x1="94.75" y1="98.66" x2="109.93" y2="98.66"/>
        <line class="cls-6" x1="102.34" y1="91.07" x2="102.34" y2="106.26"/>
      </g>
      <g>
        <line class="cls-6" x1="57.02" y1="151.92" x2="72.2" y2="151.92"/>
        <line class="cls-6" x1="64.61" y1="144.33" x2="64.61" y2="159.51"/>
      </g>
      <g>
        <line class="cls-6" x1="198.84" y1="151.92" x2="191.84" y2="151.92"/>
        <line class="cls-6" x1="198.84" y1="137.92" x2="191.84" y2="137.92"/>
        <line class="cls-6" x1="198.84" y1="123.92" x2="191.84" y2="123.92"/>
        <line class="cls-6" x1="198.84" y1="109.92" x2="191.84" y2="109.92"/>
        <line class="cls-6" x1="198.84" y1="95.92" x2="191.84" y2="95.92"/>
        <line class="cls-6" x1="198.84" y1="81.92" x2="191.84" y2="81.92"/>
      </g>
      <g>
        <g>
          <g>
            <path class="cls-1" d="M189.18,282.76c-4.14,0-7.5-3.36-7.5-7.5v-83c0-.73,.16-3.26,2.2-5.3,1.42-1.42,3.3-2.2,5.3-2.2h146c4.14,0,7.5,3.36,7.5,7.5v83c0,4.14-3.36,7.5-7.5,7.5H189.18Z"/>
            <path d="M335.18,187.26c2.76,0,5,2.24,5,5v83c0,2.76-2.24,5-5,5H189.18c-2.76,0-5-2.24-5-5v-83c0-.35,.07-2.14,1.46-3.54,.94-.94,2.2-1.46,3.54-1.46h146m0-5H189.18c-2.76,0-5.26,1.12-7.07,2.93-2.86,2.86-2.93,6.41-2.93,7.07v83c0,5.52,4.48,10,10,10h146c5.52,0,10-4.48,10-10v-83c0-5.52-4.48-10-10-10h0Z"/>
          </g>
          <g>
            <path class="cls-1" d="M175.18,287.76c-4.14,0-7.5-3.36-7.5-7.5v-1.5h189v1.5c0,4.14-3.36,7.5-7.5,7.5H175.18Z"/>
            <path d="M354.08,281.26c-.46,2.28-2.49,4-4.9,4H175.18c-2.41,0-4.43-1.72-4.9-4h183.8m5.1-5H165.18v4c0,5.52,4.48,10,10,10h174c5.52,0,10-4.48,10-10v-4h0Z"/>
          </g>
          <g>
            <rect x="253.18" y="280.76" width="18" height="5"/>
            <polygon points="273.68 278.26 250.68 278.26 250.68 288.26 273.68 288.26 273.68 278.26 273.68 278.26"/>
          </g>
        </g>
        <g>
          <g>
            <circle cx="222.34" cy="200.26" r="3"/>
            <circle cx="235.34" cy="200.26" r="3"/>
          </g>
          <path class="cls-5" d="M236.38,208.19c-1.42,2.71-4.26,4.57-7.54,4.57s-6.12-1.86-7.54-4.57"/>
        </g>
      </g>
      <g>
        <g>
          <path d="M101.87,169.76c-3.32,0-6.02-2.7-6.02-6.02v-26.96c0-8.83,7.19-16.02,16.02-16.02h45.96c8.83,0,16.02,7.19,16.02,16.02v26.96c0,3.32-2.7,6.02-6.02,6.02H101.87Z"/>
          <path d="M157.82,123.26c7.46,0,13.52,6.07,13.52,13.52v26.96c0,1.94-1.58,3.52-3.52,3.52H101.87c-1.94,0-3.52-1.58-3.52-3.52v-26.96c0-7.46,6.07-13.52,13.52-13.52h45.96m0-5h-45.96c-10.23,0-18.52,8.29-18.52,18.52v26.96c0,4.71,3.82,8.52,8.52,8.52h65.96c4.71,0,8.52-3.82,8.52-8.52v-26.96c0-10.23-8.29-18.52-18.52-18.52h0Z"/>
        </g>
        <g>
          <path d="M127.1,143.76c-.69,0-1.26-.56-1.26-1.26v-23.11c0-5.86,4.77-10.63,10.63-10.63h17.74c5.86,0,10.63,4.77,10.63,10.63v23.11c0,.69-.56,1.26-1.26,1.26h-36.48Z"/>
          <path d="M154.21,111.26c4.48,0,8.13,3.65,8.13,8.13v21.87h-34v-21.87c0-4.48,3.65-8.13,8.13-8.13h17.74m0-5h-17.74c-7.25,0-13.13,5.88-13.13,13.13v23.11c0,2.08,1.68,3.76,3.76,3.76h36.48c2.08,0,3.76-1.68,3.76-3.76v-23.11c0-7.25-5.88-13.13-13.13-13.13h0Z"/>
        </g>
        <g>
          <circle cx="140.84" cy="144.76" r="18"/>
          <path class="cls-1" d="M140.84,129.26c8.55,0,15.5,6.95,15.5,15.5s-6.95,15.5-15.5,15.5-15.5-6.95-15.5-15.5,6.95-15.5,15.5-15.5m0-5c-11.32,0-20.5,9.18-20.5,20.5s9.18,20.5,20.5,20.5,20.5-9.18,20.5-20.5-9.18-20.5-20.5-20.5h0Z"/>
        </g>
        <rect class="cls-1" x="102.34" y="123.26" width="15" height="5.57" rx="2.79" ry="2.79"/>
      </g>
      <g>
        <rect class="cls-1" x="378.37" y="194.41" width="83.47" height="78.35" rx="3.97" ry="3.97"/>
        <path d="M457.88,196.91c.81,0,1.47,.66,1.47,1.47v70.41c0,.81-.66,1.47-1.47,1.47h-75.54c-.81,0-1.47-.66-1.47-1.47v-70.41c0-.81,.66-1.47,1.47-1.47h75.54m0-5h-75.54c-3.57,0-6.47,2.9-6.47,6.47v70.41c0,3.57,2.9,6.47,6.47,6.47h75.54c3.57,0,6.47-2.9,6.47-6.47v-70.41c0-3.57-2.9-6.47-6.47-6.47h0Z"/>
      </g>
      <polygon class="cls-7" points="398.34 271.26 377.91 270.26 379.34 195.26 448.34 194.26 398.34 271.26"/>
      <g>
        <rect class="cls-1" x="344.84" y="129.76" width="100" height="42" rx="3.97" ry="3.97"/>
        <path d="M440.88,132.26c.81,0,1.47,.66,1.47,1.47v34.07c0,.81-.66,1.47-1.47,1.47h-92.07c-.81,0-1.47-.66-1.47-1.47v-34.07c0-.81,.66-1.47,1.47-1.47h92.07m0-5h-92.07c-3.57,0-6.47,2.9-6.47,6.47v34.07c0,3.57,2.9,6.47,6.47,6.47h92.07c3.57,0,6.47-2.9,6.47-6.47v-34.07c0-3.57-2.9-6.47-6.47-6.47h0Z"/>
      </g>
      <rect class="cls-7" x="345.96" y="130.44" width="45.92" height="40"/>
      <rect class="cls-2" x="293.34" y="192.26" width="41" height="77.5"/>
      <g>
        <g id="_リピートラジアル_" data-name="&amp;lt;リピートラジアル&amp;gt;">
          <g>
            <path class="cls-1" d="M53.13,249.24c-2.18,0-3.96-1.78-3.97-3.96l-.12-57.94c0-1.06,.41-2.06,1.16-2.81,.75-.75,1.74-1.17,2.8-1.17l40.03-.08c2.19,0,3.97,1.78,3.98,3.96l.12,57.94c0,2.19-1.77,3.97-3.96,3.98l-40.04,.08Z"/>
            <path d="M93.05,185.79c.81,0,1.46,.66,1.46,1.46l.12,57.94c0,.81-.66,1.47-1.46,1.47l-40.04,.08c-.81,0-1.46-.66-1.47-1.46l-.12-57.94c0-.81,.66-1.47,1.46-1.47l40.04-.08m0-5h-.01l-40.03,.08c-3.57,0-6.46,2.91-6.45,6.48l.12,57.94c0,3.57,2.9,6.45,6.47,6.45h.01l40.03-.08c3.57,0,6.46-2.91,6.45-6.48l-.12-57.94c0-3.57-2.9-6.45-6.47-6.45h0Z"/>
          </g>
          <rect class="cls-2" x="46.15" y="197.54" width="53.88" height="37.44" transform="translate(-143.03 289.8) rotate(-90.12)"/>
        </g>
        <g id="_リピートラジアル_-2" data-name="&amp;lt;リピートラジアル&amp;gt;">
          <g>
            <path class="cls-1" d="M68.81,269.87c-1.61,0-3.05-.96-3.67-2.44l-22.28-53.48c-.84-2.02,.12-4.35,2.14-5.19l36.96-15.4c.49-.2,1-.31,1.52-.31,1.61,0,3.05,.96,3.67,2.44l22.28,53.48c.84,2.02-.12,4.35-2.14,5.19l-36.96,15.4c-.49,.2-1,.31-1.52,.31Z"/>
            <path d="M83.48,195.55c.45,0,1.08,.24,1.36,.9l22.28,53.48c.19,.46,.11,.87,0,1.12-.11,.26-.33,.6-.79,.8l-36.95,15.4c-.18,.08-.37,.11-.56,.11-.45,0-1.08-.24-1.36-.9l-22.28-53.48c-.19-.46-.11-.87,0-1.12,.11-.26,.33-.6,.79-.8l36.96-15.4c.18-.08,.37-.11,.56-.11m0-5c-.83,0-1.67,.16-2.48,.5l-36.96,15.4c-3.3,1.37-4.86,5.16-3.48,8.46l22.28,53.48c1.04,2.48,3.44,3.98,5.97,3.98,.83,0,1.67-.16,2.48-.5l36.95-15.4c3.3-1.37,4.86-5.16,3.48-8.46l-22.28-53.48c-1.03-2.48-3.44-3.98-5.97-3.98h0Z"/>
          </g>
          <rect class="cls-2" x="49.2" y="212.74" width="53.88" height="37.44" transform="translate(-108.23 390.76) rotate(-112.62)"/>
        </g>
        <g id="_リピートラジアル_-3" data-name="&amp;lt;リピートラジアル&amp;gt;">
          <g>
            <path class="cls-1" d="M91.18,282.92c-1.06,0-2.05-.41-2.8-1.16l-41.05-40.88c-1.55-1.54-1.55-4.06-.01-5.61l28.25-28.37c.75-.75,1.75-1.17,2.81-1.17s2.05,.41,2.8,1.16l41.05,40.88c1.55,1.54,1.55,4.06,.01,5.61l-28.25,28.37c-.75,.75-1.75,1.17-2.81,1.17Z"/>
            <path d="M78.38,208.24c.28,0,.68,.07,1.03,.43l41.05,40.88c.57,.57,.57,1.5,0,2.07l-28.25,28.37c-.36,.36-.76,.43-1.04,.43s-.68-.07-1.03-.43l-41.05-40.88c-.36-.35-.43-.76-.43-1.04,0-.28,.07-.68,.43-1.04l28.25-28.37c.36-.36,.76-.43,1.04-.43m0-5c-1.66,0-3.32,.63-4.58,1.9l-28.25,28.37c-2.52,2.53-2.51,6.63,.02,9.15l41.05,40.88c1.26,1.26,2.91,1.88,4.56,1.88s3.32-.63,4.58-1.9l28.25-28.37c2.52-2.53,2.51-6.63-.02-9.15l-41.05-40.88c-1.26-1.26-2.91-1.88-4.56-1.88h0Z"/>
          </g>
          <rect class="cls-2" x="57.84" y="225.61" width="53.88" height="37.44" transform="translate(-27.56 477.28) rotate(-135.12)"/>
        </g>
        <g id="_リピートラジアル_-4" data-name="&amp;lt;リピートラジアル&amp;gt;">
          <g>
            <path class="cls-1" d="M116.85,286.42c-.52,0-1.02-.1-1.51-.3l-53.57-22.06c-.98-.4-1.74-1.16-2.15-2.14-.41-.98-.41-2.06,0-3.04l15.24-37.02c.62-1.49,2.06-2.46,3.67-2.46,.52,0,1.02,.1,1.51,.3l53.57,22.06c.98,.4,1.74,1.16,2.15,2.14,.41,.98,.41,2.06,0,3.04l-15.24,37.02c-.62,1.49-2.06,2.46-3.67,2.46Z"/>
            <path d="M78.52,221.91c.19,0,.38,.04,.56,.11l53.57,22.06c.75,.31,1.11,1.17,.8,1.92l-15.24,37.02c-.28,.67-.91,.91-1.36,.91-.19,0-.38-.04-.56-.11l-53.57-22.06c-.46-.19-.69-.54-.8-.79-.11-.26-.19-.66,0-1.12l15.24-37.02c.28-.67,.91-.91,1.36-.91m0-5c-2.54,0-4.95,1.51-5.98,4.01l-15.24,37.02c-1.36,3.3,.21,7.08,3.52,8.44l53.57,22.06c.81,.33,1.64,.49,2.46,.49,2.54,0,4.95-1.51,5.98-4.01l15.24-37.02c1.36-3.3-.21-7.08-3.52-8.44l-53.57-22.06c-.81-.33-1.64-.49-2.46-.49h0Z"/>
          </g>
          <rect class="cls-2" x="70.74" y="234.19" width="53.88" height="37.44" transform="translate(91.71 523.98) rotate(-157.62)"/>
        </g>
        <g id="_リピートラジアル_-5" data-name="&amp;lt;リピートラジアル&amp;gt;">
          <g>
            <path class="cls-1" d="M83.97,279.95c-2.18,0-3.96-1.78-3.97-3.96l-.08-40.03c0-1.06,.41-2.06,1.16-2.81,.75-.75,1.74-1.17,2.8-1.17l57.94-.12c2.19,0,3.97,1.78,3.98,3.96l.08,40.03c0,2.19-1.77,3.97-3.96,3.97l-57.95,.12Z"/>
            <path d="M141.83,234.37c.81,0,1.46,.66,1.46,1.46l.08,40.03c0,.81-.66,1.47-1.46,1.47l-57.94,.12c-.81,0-1.47-.66-1.47-1.46l-.08-40.03c0-.81,.66-1.47,1.46-1.47l57.94-.12m0-5h-.01l-57.94,.12c-3.57,0-6.46,2.91-6.45,6.48l.08,40.03c0,3.57,2.9,6.45,6.47,6.45h.01l57.94-.12c3.57,0,6.46-2.91,6.45-6.48l-.08-40.03c0-3.57-2.9-6.45-6.47-6.45h0Z"/>
          </g>
          <rect class="cls-2" x="85.95" y="237.19" width="53.88" height="37.44" transform="translate(226.32 511.58) rotate(179.88)"/>
        </g>
      </g>
      <path class="cls-3" d="M107.84,175.76c2.55-.95,5.21-1.97,8-2,2.46-.02,9.22,1.14,13.33,4.35,6.1,4.77,8.06,8.93,8.69,15,1.49,14.3-.69,21.27,5.97,27.65,5.99,5.74,11.67,7.53,21.29,6.35,8.57-1.05,14.37-7.5,16.1-9.29"/>
      <g>
        <g>
          <path d="M289.41,137.83c-1.38,0-2.66-.8-3.26-2.05l-4.88-10.11c-.87-1.8-.11-3.96,1.69-4.83l54.44-26.24c.49-.23,1.03-.36,1.57-.36,1.38,0,2.66,.8,3.26,2.04l4.88,10.11c.87,1.8,.11,3.96-1.69,4.83l-54.44,26.24c-.49,.23-1.03,.36-1.57,.36Z"/>
          <path class="cls-1" d="M338.96,96.74c.42,0,.81,.23,1.01,.63l4.87,10.11c.27,.56,.03,1.22-.52,1.49l-54.43,26.24c-.16,.08-.32,.11-.48,.11-.42,0-.81-.23-1.01-.63l-4.87-10.11c-.27-.56-.03-1.22,.52-1.49l54.43-26.24c.16-.08,.32-.11,.48-.11m0-5c-.91,0-1.83,.21-2.66,.61l-54.44,26.24c-3.04,1.46-4.32,5.13-2.85,8.16l4.88,10.11c1.01,2.1,3.18,3.46,5.51,3.46,.91,0,1.83-.21,2.66-.61l54.43-26.24c3.04-1.46,4.32-5.13,2.85-8.16l-4.87-10.11c-1.01-2.1-3.18-3.46-5.51-3.46h0Z"/>
        </g>
        <path d="M276.98,134.12c-.85-1.77-1.65-3.13-1.76-3.02s-2.03,1.92-4.25,4.03-1.56,3.48,1.47,3.06,5.64-.79,5.8-.81-.41-1.49-1.26-3.26Z"/>
      </g>
      <path class="cls-4" d="M287.78,113.26c5.72-5.41,5.72-14.26,0-19.66h0c-5.72-5.41-15.07-5.41-20.79,0l-6.38,6.04-6.38-6.04c-5.72-5.41-15.07-5.41-20.79,0h0c-5.72,5.41-5.72,14.26,0,19.66l27.17,25.7"/>
      <circle cx="72.2" cy="121.07" r="2.5"/>
      <circle cx="134.84" cy="93.76" r="2.5"/>
      <circle cx="160.1" cy="188.38" r="2.5"/>
      <g>
        <g id="_リピートラジアル_-6" data-name="&amp;lt;リピートラジアル&amp;gt;">
          <line class="cls-5" x1="289.48" y1="28.6" x2="289.58" y2="34.52"/>
        </g>
        <g id="_リピートラジアル_-7" data-name="&amp;lt;リピートラジアル&amp;gt;">
          <line class="cls-5" x1="320.85" y1="31.45" x2="319.68" y2="37.25"/>
        </g>
        <g id="_リピートラジアル_-8" data-name="&amp;lt;リピートラジアル&amp;gt;">
          <line class="cls-5" x1="350.88" y1="40.97" x2="348.49" y2="46.39"/>
        </g>
        <g id="_リピートラジアル_-9" data-name="&amp;lt;リピートラジアル&amp;gt;">
          <line class="cls-5" x1="378.15" y1="56.73" x2="374.65" y2="61.51"/>
        </g>
        <g id="_リピートラジアル_-10" data-name="&amp;lt;リピートラジアル&amp;gt;">
          <line class="cls-5" x1="401.4" y1="77.99" x2="396.96" y2="81.9"/>
        </g>
        <g id="_リピートラジアル_-11" data-name="&amp;lt;リピートラジアル&amp;gt;">
          <line class="cls-5" x1="419.54" y1="103.74" x2="414.36" y2="106.61"/>
        </g>
      </g>
    </g>
  </g>
</svg>