<?xml version="1.0" encoding="UTF-8"?>
<svg xmlns="http://www.w3.org/2000/svg" viewBox="0 0 500 330">
  <defs>
    <style>
      .cls-1 {
        fill: #fff;
      }

      .cls-2 {
        fill: #c4d9f4;
      }

      .cls-2, .cls-3 {
        mix-blend-mode: multiply;
      }

      .cls-3 {
        fill: #eae65f;
      }

      .cls-4 {
        fill-rule: evenodd;
        stroke-linejoin: round;
        stroke-width: 5px;
      }

      .cls-4, .cls-5 {
        fill: none;
        stroke: #000;
        stroke-linecap: round;
      }

      .cls-6 {
        isolation: isolate;
      }

      .cls-5 {
        stroke-miterlimit: 10;
        stroke-width: 5px;
      }
    </style>
  </defs>
  <g class="cls-6">
    <g id="_レイヤー_1" data-name="レイヤー 1">
      <g>
        <g id="_リピートラジアル_" data-name="&amp;lt;リピートラジアル&amp;gt;">
          <line class="cls-5" x1="386.92" y1="229.86" x2="386.92" y2="239.63"/>
        </g>
        <g id="_リピートラジアル_-2" data-name="&amp;lt;リピートラジアル&amp;gt;">
          <line class="cls-5" x1="396.21" y1="236.61" x2="386.92" y2="239.63"/>
        </g>
        <g id="_リピートラジアル_-3" data-name="&amp;lt;リピートラジアル&amp;gt;">
          <line class="cls-5" x1="392.66" y1="247.53" x2="386.92" y2="239.63"/>
        </g>
        <g id="_リピートラジアル_-4" data-name="&amp;lt;リピートラジアル&amp;gt;">
          <line class="cls-5" x1="381.18" y1="247.53" x2="386.92" y2="239.63"/>
        </g>
        <g id="_リピートラジアル_-5" data-name="&amp;lt;リピートラジアル&amp;gt;">
          <line class="cls-5" x1="377.63" y1="236.61" x2="386.92" y2="239.63"/>
        </g>
      </g>
      <g>
        <g id="_リピートラジアル_-6" data-name="&amp;lt;リピートラジアル&amp;gt;">
          <line class="cls-5" x1="108.92" y1="243.86" x2="108.92" y2="253.63"/>
        </g>
        <g id="_リピートラジアル_-7" data-name="&amp;lt;リピートラジアル&amp;gt;">
          <line class="cls-5" x1="118.21" y1="250.61" x2="108.92" y2="253.62"/>
        </g>
        <g id="_リピートラジアル_-8" data-name="&amp;lt;リピートラジアル&amp;gt;">
          <line class="cls-5" x1="114.66" y1="261.53" x2="108.92" y2="253.63"/>
        </g>
        <g id="_リピートラジアル_-9" data-name="&amp;lt;リピートラジアル&amp;gt;">
          <line class="cls-5" x1="103.18" y1="261.53" x2="108.92" y2="253.63"/>
        </g>
        <g id="_リピートラジアル_-10" data-name="&amp;lt;リピートラジアル&amp;gt;">
          <line class="cls-5" x1="99.63" y1="250.61" x2="108.92" y2="253.63"/>
        </g>
      </g>
      <g>
        <g id="_リピートラジアル_-11" data-name="&amp;lt;リピートラジアル&amp;gt;">
          <line class="cls-5" x1="130.87" y1="191" x2="135.66" y2="194.47"/>
        </g>
        <g id="_リピートラジアル_-12" data-name="&amp;lt;リピートラジアル&amp;gt;">
          <line class="cls-5" x1="151.99" y1="167.63" x2="155.93" y2="172.06"/>
        </g>
        <g id="_リピートラジアル_-13" data-name="&amp;lt;リピートラジアル&amp;gt;">
          <line class="cls-5" x1="177.65" y1="149.35" x2="180.54" y2="154.52"/>
        </g>
        <g id="_リピートラジアル_-14" data-name="&amp;lt;リピートラジアル&amp;gt;">
          <line class="cls-5" x1="206.63" y1="137.01" x2="208.35" y2="142.68"/>
        </g>
        <g id="_リピートラジアル_-15" data-name="&amp;lt;リピートラジアル&amp;gt;">
          <line class="cls-5" x1="237.59" y1="131.2" x2="238.05" y2="137.1"/>
        </g>
        <g id="_リピートラジアル_-16" data-name="&amp;lt;リピートラジアル&amp;gt;">
          <line class="cls-5" x1="269.08" y1="132.17" x2="268.26" y2="138.03"/>
        </g>
        <g id="_リピートラジアル_-17" data-name="&amp;lt;リピートラジアル&amp;gt;">
          <line class="cls-5" x1="299.62" y1="139.89" x2="297.56" y2="145.44"/>
        </g>
        <g id="_リピートラジアル_-18" data-name="&amp;lt;リピートラジアル&amp;gt;">
          <line class="cls-5" x1="327.79" y1="153.99" x2="324.58" y2="158.97"/>
        </g>
        <g id="_リピートラジアル_-19" data-name="&amp;lt;リピートラジアル&amp;gt;">
          <line class="cls-5" x1="352.27" y1="173.82" x2="348.07" y2="177.99"/>
        </g>
      </g>
      <g>
        <g>
          <rect class="cls-1" x="169.2" y="186" width="161" height="98" rx="7.5" ry="7.5"/>
          <path d="M322.7,188.5c2.76,0,5,2.24,5,5v83c0,2.76-2.24,5-5,5H176.7c-2.76,0-5-2.24-5-5v-83c0-2.76,2.24-5,5-5h146m0-5H176.7c-5.52,0-10,4.48-10,10v83c0,5.52,4.48,10,10,10h146c5.52,0,10-4.48,10-10v-83c0-5.52-4.48-10-10-10h0Z"/>
        </g>
        <g>
          <path class="cls-1" d="M162.7,289c-4.14,0-7.5-3.36-7.5-7.5v-1.5h189v1.5c0,4.14-3.36,7.5-7.5,7.5H162.7Z"/>
          <path d="M341.6,282.5c-.46,2.28-2.48,4-4.9,4H162.7c-2.41,0-4.43-1.72-4.9-4h183.8m5.1-5H152.7v4c0,5.52,4.48,10,10,10h174c5.52,0,10-4.48,10-10v-4h0Z"/>
        </g>
        <g>
          <rect x="240.7" y="282" width="18" height="5"/>
          <polygon points="261.2 279.5 238.2 279.5 238.2 289.5 261.2 289.5 261.2 279.5 261.2 279.5"/>
        </g>
      </g>
      <g>
        <g>
          <circle cx="243.2" cy="204.5" r="3"/>
          <circle cx="256.2" cy="204.5" r="3"/>
        </g>
        <path class="cls-5" d="M257.24,212.43c-1.42,2.71-4.26,4.57-7.54,4.57s-6.12-1.86-7.54-4.57"/>
      </g>
      <rect class="cls-2" x="168.7" y="226.5" width="162" height="51"/>
      <g>
        <g>
          <g>
            <path class="cls-1" d="M72.49,244.96c-.71,0-1.41-.2-2.03-.56l-51.62-30.9c-.91-.54-1.55-1.41-1.81-2.44-.26-1.03-.1-2.09,.44-3l52.02-86.89c.72-1.21,2-1.93,3.41-1.93,.71,0,1.42,.2,2.03,.56l51.62,30.9c1.88,1.12,2.49,3.56,1.37,5.44l-52.02,86.89c-.72,1.21-2,1.93-3.41,1.93Z"/>
            <path d="M72.9,121.74c.26,0,.51,.07,.75,.21l51.62,30.9c.69,.42,.92,1.32,.51,2.01l-52.02,86.89c-.4,.66-1.07,.71-1.26,.71-.26,0-.52-.07-.75-.21l-51.62-30.9c-.43-.26-.6-.63-.67-.9s-.09-.68,.16-1.11l52.02-86.89c.4-.66,1.07-.71,1.27-.71m0-5c-2.2,0-4.34,1.12-5.55,3.15L15.32,206.77c-1.83,3.06-.84,7.04,2.23,8.87l51.62,30.9c1.04,.62,2.19,.92,3.32,.92,2.2,0,4.34-1.12,5.55-3.15l52.02-86.89c1.83-3.06,.84-7.04-2.23-8.87l-51.62-30.9c-1.04-.62-2.19-.92-3.32-.92h0Z"/>
          </g>
          <rect class="cls-2" x="43.49" y="193.21" width="28.07" height="52.18" transform="translate(-160.18 156.01) rotate(-59.09)"/>
          <rect class="cls-3" x="-4.3" y="161.08" width="108.4" height="13.69" transform="translate(-119.81 124.48) rotate(-59.09)"/>
        </g>
        <g>
          <g>
            <path class="cls-1" d="M119.78,162.67c-1.44,0-2.77-.78-3.47-2.04l-29.25-52.57c-.51-.93-.64-2-.35-3.02,.29-1.02,.96-1.86,1.89-2.38l88.49-49.24c.6-.33,1.25-.5,1.92-.5,1.44,0,2.77,.78,3.47,2.04l29.25,52.57c.51,.93,.64,2,.35,3.02-.29,1.02-.96,1.86-1.89,2.38l-88.49,49.24c-.6,.33-1.25,.5-1.92,.5Z"/>
            <path d="M179,55.42c.42,0,.98,.2,1.29,.75l29.25,52.57c.24,.44,.2,.85,.13,1.12s-.26,.64-.7,.88l-88.49,49.24c-.22,.12-.46,.19-.71,.19-.42,0-.98-.2-1.29-.75l-29.25-52.57c-.24-.44-.2-.85-.13-1.12s.26-.64,.7-.88l88.49-49.24c.22-.12,.46-.19,.71-.19m0-5c-1.06,0-2.14,.26-3.14,.82l-88.49,49.24c-3.12,1.74-4.24,5.67-2.51,8.8l29.25,52.57c1.18,2.13,3.39,3.32,5.66,3.32,1.06,0,2.14-.26,3.14-.82l88.49-49.24c3.12-1.74,4.24-5.67,2.51-8.8l-29.25-52.57c-1.18-2.13-3.39-3.32-5.66-3.32h0Z"/>
          </g>
          <rect class="cls-2" x="103.62" y="106.33" width="28.07" height="52.18" transform="translate(-49.54 73.91) rotate(-29.09)"/>
          <rect class="cls-3" x="82.54" y="77.27" width="108.4" height="13.69" transform="translate(-23.65 77.1) rotate(-29.09)"/>
        </g>
        <g>
          <g>
            <path class="cls-1" d="M201.8,115.03c-2.19-.03-3.94-1.84-3.9-4.03l.95-60.16c.03-2.15,1.81-3.9,3.96-3.9l101.32,1.6c1.06,.02,2.05,.45,2.79,1.21s1.13,1.76,1.12,2.82l-.95,60.16c-.03,2.15-1.81,3.9-3.96,3.9l-101.32-1.6Z"/>
            <path d="M202.82,44.44v5h.02s101.26,1.6,101.26,1.6c.5,0,.84,.25,1.03,.45,.19,.2,.42,.54,.41,1.04l-.95,60.16c-.01,.8-.67,1.44-1.49,1.44l-101.26-1.6c-.5,0-.84-.25-1.03-.45-.19-.2-.42-.54-.41-1.04l.95-60.16c.01-.8,.67-1.44,1.47-1.44v-5m0,0c-3.52,0-6.41,2.83-6.46,6.36l-.95,60.16c-.06,3.57,2.79,6.51,6.36,6.57l101.26,1.6s.07,0,.1,0c3.52,0,6.41-2.83,6.46-6.36l.95-60.16c.06-3.57-2.79-6.51-6.36-6.57l-101.26-1.6s-.07,0-.1,0h0Z"/>
          </g>
          <rect class="cls-2" x="199.13" y="61.16" width="28.07" height="52.18" transform="translate(1.41 -3.36) rotate(.91)"/>
          <rect class="cls-3" x="199.65" y="48.12" width="108.4" height="13.69" transform="translate(.9 -4.01) rotate(.91)"/>
        </g>
        <g>
          <g>
            <path class="cls-1" d="M383.66,166.85c-.71,0-1.41-.19-2.03-.56l-86.89-52.02c-.91-.54-1.55-1.41-1.81-2.44-.26-1.03-.1-2.09,.44-3l30.9-51.62c.72-1.21,2-1.93,3.41-1.93,.71,0,1.42,.2,2.03,.56l86.89,52.02c.91,.54,1.55,1.41,1.81,2.44,.26,1.03,.1,2.09-.44,3l-30.9,51.62c-.72,1.21-2,1.93-3.41,1.93Z"/>
            <path d="M327.68,57.77c.26,0,.52,.07,.75,.21l86.89,52.02c.43,.26,.6,.63,.67,.9s.09,.68-.16,1.11l-30.9,51.62c-.4,.66-1.07,.71-1.26,.71-.26,0-.52-.07-.75-.21l-86.89-52.02c-.69-.42-.92-1.32-.5-2.01l30.9-51.62c.4-.66,1.07-.71,1.27-.71m0-5c-2.2,0-4.34,1.12-5.55,3.15l-30.9,51.62c-1.83,3.06-.84,7.04,2.23,8.87l86.89,52.02c1.04,.62,2.19,.92,3.32,.92,2.2,0,4.34-1.12,5.55-3.15l30.9-51.62c1.83-3.06,.84-7.04-2.23-8.87l-86.89-52.02c-1.04-.62-2.19-.92-3.32-.92h0Z"/>
          </g>
          <rect class="cls-2" x="304.44" y="69.8" width="28.07" height="52.18" transform="translate(94.48 -149.96) rotate(30.91)"/>
          <rect class="cls-3" x="315.65" y="81.42" width="108.4" height="13.69" transform="translate(97.86 -177.44) rotate(30.91)"/>
        </g>
        <g>
          <g>
            <path class="cls-1" d="M428.32,250.6c-1.44,0-2.77-.78-3.47-2.04l-49.24-88.49c-.51-.93-.64-2-.35-3.02,.29-1.02,.96-1.86,1.89-2.38l52.57-29.25c.59-.33,1.25-.5,1.92-.5,1.44,0,2.77,.78,3.47,2.04l49.24,88.49c1.06,1.91,.37,4.33-1.54,5.4l-52.57,29.25c-.6,.33-1.25,.5-1.92,.5Z"/>
            <path d="M431.64,127.42c.42,0,.98,.2,1.29,.75l49.24,88.49c.24,.44,.2,.85,.13,1.12-.08,.27-.26,.64-.7,.88l-52.57,29.25c-.22,.12-.46,.19-.71,.19-.42,0-.98-.2-1.29-.75l-49.24-88.49c-.24-.44-.2-.85-.13-1.12,.08-.27,.26-.64,.7-.88l52.57-29.25c.22-.12,.46-.19,.71-.19m0-5c-1.06,0-2.14,.26-3.14,.82l-52.57,29.25c-3.12,1.74-4.24,5.67-2.51,8.8l49.24,88.49c1.18,2.13,3.39,3.32,5.66,3.32,1.06,0,2.14-.26,3.14-.82l52.57-29.25c3.12-1.74,4.24-5.67,2.51-8.8l-49.24-88.49c-1.18-2.13-3.39-3.32-5.66-3.32h0Z"/>
          </g>
          <rect class="cls-2" x="391.31" y="129.93" width="28.07" height="52.18" transform="translate(344.6 -274.04) rotate(60.91)"/>
          <rect class="cls-3" x="399.45" y="168.27" width="108.4" height="13.69" transform="translate(386.09 -306.45) rotate(60.91)"/>
        </g>
      </g>
      <rect class="cls-3" x="169.39" y="186.5" width="160.61" height="18.52" rx="3.4" ry="3.4"/>
      <path class="cls-4" d="M106.42,205.5c2.61-.73,6.85-1.58,11.96-1,1.5,.17,9.64,1.2,16.32,7,10.05,8.73,6.14,19.01,15.23,23,4.56,2,9.37,1.08,9.79,1,4.79-.97,7.69-3.88,8.7-5"/>
      <path class="cls-4" d="M390.42,198.5c-2.44-.73-6.41-1.58-11.19-1-1.4,.17-9.02,1.2-15.26,7-9.4,8.73-5.74,19.01-14.25,23-4.27,2-8.77,1.08-9.16,1-4.48-.97-7.19-3.88-8.14-5"/>
    </g>
  </g>
</svg>