<?xml version="1.0" encoding="utf-8"?>
<!-- Generator: Adobe Illustrator 26.5.0, SVG Export Plug-In . SVG Version: 6.00 Build 0)  -->
<svg version="1.1" id="mdi-git" xmlns="http://www.w3.org/2000/svg" xmlns:xlink="http://www.w3.org/1999/xlink" x="0px" y="0px"
	 viewBox="0 0 24 24" style="enable-background:new 0 0 24 24;" xml:space="preserve">
<path d="M0.7,10.3l6.9-7l2,2c-0.3,1,0.2,2.1,1.1,2.7v6.7c-0.7,0.4-1.2,1.2-1.2,2.1c0,1.3,1.1,2.4,2.4,2.4s2.4-1.1,2.4-2.4
	c0-0.9-0.5-1.7-1.2-2.1V8.9l2.5,2.5c-0.1,0.2-0.1,0.4-0.1,0.6c0,1.3,1.1,2.4,2.4,2.4c1.3,0,2.4-1.1,2.4-2.4S19.3,9.6,18,9.6
	c-0.2,0-0.4,0-0.6,0.1l-3.1-3.1c0.3-1.1-0.3-2.3-1.4-2.8c-0.5-0.2-1.1-0.2-1.5-0.1l-2-2l0.9-0.9c0.9-0.9,2.4-0.9,3.4,0l9.6,9.6
	c0.9,0.9,0.9,2.4,0,3.4l-9.6,9.6c-0.9,0.9-2.4,0.9-3.4,0l-9.6-9.6C-0.2,12.8-0.2,11.2,0.7,10.3z"/>
</svg>
