<?xml version="1.0" encoding="utf-8"?>
<!-- Generator: Adobe Illustrator 26.5.0, SVG Export Plug-In . SVG Version: 6.00 Build 0)  -->
<svg version="1.1" id="mdi-language-javascript" xmlns="http://www.w3.org/2000/svg" xmlns:xlink="http://www.w3.org/1999/xlink"
	 x="0px" y="0px" viewBox="0 0 24 24" style="enable-background:new 0 0 24 24;" xml:space="preserve">
<path d="M0,0h24v24H0V0 M6.3,20.1c0.5,1.1,1.6,2.1,3.4,2.1c2,0,3.4-1.1,3.4-3.4V11h-2.3v7.7c0,1.1-0.5,1.4-1.2,1.4
	c-0.8,0-1.1-0.5-1.5-1.2L6.3,20.1 M14.3,19.8c0.7,1.3,2,2.3,4.1,2.3c2.1,0,3.7-1.1,3.7-3.1c0-1.9-1.1-2.7-3-3.5l-0.6-0.2
	c-1-0.4-1.4-0.7-1.4-1.4c0-0.5,0.4-1,1.1-1c0.6,0,1.1,0.3,1.5,1l1.7-1.2c-0.7-1.3-1.8-1.8-3.2-1.8c-2,0-3.3,1.3-3.3,3
	c0,1.8,1.1,2.7,2.7,3.4l0.6,0.2c1,0.5,1.7,0.7,1.7,1.5c0,0.6-0.6,1.1-1.5,1.1c-1.1,0-1.7-0.6-2.2-1.4L14.3,19.8z"/>
</svg>
