<?xml version="1.0" encoding="utf-8"?>
<!-- Generator: Adobe Illustrator 26.5.0, SVG Export Plug-In . SVG Version: 6.00 Build 0)  -->
<svg version="1.1" id="レイヤー_1" xmlns="http://www.w3.org/2000/svg" xmlns:xlink="http://www.w3.org/1999/xlink" x="0px"
	 y="0px" viewBox="0 0 24 24" style="enable-background:new 0 0 24 24;" xml:space="preserve">
<circle cx="20.3" cy="8.3" r="1.7"/>
<path d="M19.9,11.4H24v4.4c0,1.1-0.9,2-2,2h-2C19.9,17.8,19.9,11.4,19.9,11.4z M0.1,2.6v18.7l13.4,2.4V0.3L0.1,2.6z M10,9.1L7.7,9.2
	V16H5.9V9.3L3.6,9.4V7.8L10,7.5V9.1z M14.7,9.6v9.9H17c1,0,1.8-0.8,1.8-1.7V9.6H14.7z M16.4,3.8c-0.7,0-1.3,0.3-1.8,0.8v3.1
	c0.4,0.5,1,0.8,1.8,0.8c1.3,0,2.3-1,2.3-2.3S17.7,3.8,16.4,3.8z"/>
</svg>
