<?xml version="1.0" encoding="utf-8"?>
<!-- Generator: Adobe Illustrator 26.5.0, SVG Export Plug-In . SVG Version: 6.00 Build 0)  -->
<svg version="1.1" id="レイヤー_1" xmlns:serif="http://www.serif.com/"
	 xmlns="http://www.w3.org/2000/svg" xmlns:xlink="http://www.w3.org/1999/xlink" x="0px" y="0px" viewBox="0 0 595.3 595.3"
	 style="enable-background:new 0 0 595.3 595.3;" xml:space="preserve">
<style type="text/css">
	.st0{fill:none;}
	.st1{fill-rule:evenodd;clip-rule:evenodd;fill:#010101;}
</style>
<rect id="Icons" y="-1785.8" class="st0" width="11905.5" height="7441"/>
<g id="Icons1" serif:id="Icons">
	<g id="Strike">
	</g>
	<g id="H1">
	</g>
	<g id="H2">
	</g>
	<g id="H3">
	</g>
	<g id="list-ul">
	</g>
	<g id="hamburger-1">
	</g>
	<g id="hamburger-2">
	</g>
	<g id="list-ol">
	</g>
	<g id="list-task">
	</g>
	<g id="trash">
	</g>
	<g id="vertical-menu">
	</g>
	<g id="horizontal-menu">
	</g>
	<g id="sidebar-2">
	</g>
	<g id="Pen">
	</g>
	<g id="Pen1" serif:id="Pen">
	</g>
	<g id="clock">
	</g>
	<g id="external-link">
	</g>
	<g id="hr">
	</g>
	<g id="info">
	</g>
	<g id="warning">
	</g>
	<g id="plus-circle">
	</g>
	<g id="minus-circle">
	</g>
	<g id="vue">
	</g>
	<g id="cog">
	</g>
	<path id="github" class="st1" d="M297.6,5.6C133.3,5.6,0,138.9,0,303.3c0,131.5,85.3,243,203.6,282.4c14.9,2.7,20.3-6.5,20.3-14.4
		c0-7-0.2-25.8-0.4-50.6c-82.8,18-100.3-39.9-100.3-39.9c-13.5-34.4-33.1-43.5-33.1-43.5c-27-18.5,2-18.1,2-18.1
		c29.9,2.1,45.6,30.7,45.6,30.7c26.6,45.5,69.7,32.3,86.6,24.7c2.7-19.2,10.4-32.4,18.9-39.8c-66.1-7.5-135.6-33.1-135.6-147.1
		c0-32.5,11.6-59.1,30.6-79.9c-3.1-7.5-13.3-37.8,2.9-78.8c0,0,25-8,81.9,30.5c23.7-6.6,49.2-9.9,74.5-10c25.3,0.1,50.7,3.4,74.5,10
		c56.8-38.5,81.8-30.5,81.8-30.5c16.2,41,6,71.2,3,78.8c19.1,20.8,30.6,47.4,30.6,79.9c0,114.3-69.6,139.5-135.9,146.9
		c10.7,9.2,20.2,27.3,20.2,55.1c0,39.8-0.4,71.9-0.4,81.6c0,8,5.4,17.2,20.5,14.3c118.2-39.4,203.4-150.9,203.4-282.4
		C595.3,138.9,462,5.6,297.6,5.6"/>
	<g id="logo">
	</g>
	<g id="eye-slash">
	</g>
	<g id="eye">
	</g>
	<g id="toggle-off">
	</g>
	<g id="shredder">
	</g>
	<g id="spinner--loading--dots-" serif:id="spinner [loading, dots]">
	</g>
	<g id="react">
	</g>
</g>
</svg>
