<?xml version="1.0" encoding="utf-8"?>
<!-- Generator: Adobe Illustrator 26.5.0, SVG Export Plug-In . SVG Version: 6.00 Build 0)  -->
<svg version="1.1" id="レイヤー_1" xmlns="http://www.w3.org/2000/svg" xmlns:xlink="http://www.w3.org/1999/xlink" x="0px"
	 y="0px" viewBox="0 0 228 228" style="enable-background:new 0 0 228 228;" xml:space="preserve">
<path d="M64.9,107L64.9,107l-1.8,6.4L64.9,107L64.9,107z M74.2,121h-2H74.2z M73.7,130.6L73.7,130.6h-12H73.7L73.7,130.6z M76.2,121
	h-2H76.2z M74.8,129.8l2.1-8L74.8,129.8z M118.9,93.1l-3.9,18.3L118.9,93.1z M108.9,93.1l-2.9,13.7L108.9,93.1z"/>
<path d="M118.2,92.3h-8.3c-0.5,0-0.9,0.4-1,0.8l-5.9,27.3c-0.1,0.5-0.5,0.8-1,0.8h-5.9c-5.8,0-5.1-4-4-9.5v-0.2l0.7-3.8l0.3-1.5
	l2.7-13.1c0.1-0.5-0.2-0.8-0.7-0.8h-8.5c-0.5,0-0.9,0.4-1,0.8L82,110.5l-0.2,0.8c-2.1,9.6-1.6,18.9,9.9,19.1H92h18
	c0.5,0,0.9-0.4,1-0.8l7.8-36.6c0.1-0.3-0.1-0.7-0.5-0.8C118.4,92.3,118.3,92.3,118.2,92.3L118.2,92.3z M151.4,121.3
	c0.5,0,0.8,0.4,0.7,0.8l-0.8,3.9 M150.4,130l0.8-3.9L150.4,130L150.4,130z M149.4,130.9l-15.3,0.1L149.4,130.9L149.4,130.9z"/>
<path d="M129.1,116.2c0-0.4,0.5-1.2,0.9-1.2h-1C128.6,119.8,129.2,116.2,129.1,116.2L129.1,116.2z M134.9,130.9h-0.2H134.9z
	 M151.4,121.3c0.5,0,0.8,0.4,0.7,0.8l-0.9,4.6 M138.8,130.9L138.8,130.9L138.8,130.9z M136.8,130.9h-0.1H136.8z M136.1,130.9h-0.2
	H136.1z M135.5,130.9h-0.2H135.5z M136.6,130.9h-0.5H136.6z"/>
<path d="M138.8,130.9h-2H138.8z M149.4,130.9l-10.6,0.1L149.4,130.9z M150.4,130l0.7-3.3L150.4,130L150.4,130z M135.9,130.9h-0.4
	H135.9z M134.7,130.9h-0.6H134.7z M135.3,130.9h-0.5H135.3z M13.7,116.3l1.3-5.7l-1.5,6.5l-1.4,6.7l1.2-5.8L13.7,116.3L13.7,116.3z
	 M29.2,92.2H20c-0.5,0-0.9,0.4-1,0.8l-1.7,7.6c-0.1,0.3,0.1,0.7,0.4,0.8c0.1,0,0.1,0,0.2,0h9.2c0.5,0,0.9-0.4,1-0.8l1.7-7.6
	C29.9,92.5,29.6,92.2,29.2,92.2L29.2,92.2z M27.2,104.9L27.2,104.9l-2.7,12.4L27.2,104.9z M0.7,145.9l7.5,0.1
	C5.7,146,3.2,146,0.7,145.9L0.7,145.9z M16.3,104.9l-1.3,5.7L16.3,104.9L16.3,104.9z"/>
<path d="M26.5,104.1h-9.2c-0.5,0-0.9,0.4-1,0.8l-2.6,11.4l-0.4,1.6l-2.5,11.7c-0.1,0.5-0.3,1.1-0.4,1.6c0,0-1.7,5.1-4.6,5.1H2.9
	c-0.5,0-0.9,0.3-1,0.8l-1.9,8c-0.1,0.3,0.1,0.7,0.4,0.8c0.1,0,0.1,0,0.2,0l7.5,0.1c7.2,0,11-4,13.5-15.5l5.5-25.6
	C27.3,104.4,27,104.1,26.5,104.1L26.5,104.1z M157.2,130.5c-0.4,0-0.7-0.3-0.7-0.6c0-0.1,0-0.1,0-0.2l6.9-32.4"/>
<path d="M166.9,129.6l2.8-13.8L166.9,129.6z M156.7,130.1c-0.1-0.2,0-0.8,0.1-1.2l3.3-15.4l-3.5,16.2c-0.1,0.3,0.1,0.7,0.5,0.8
	c0.1,0,0.1,0,0.2,0h0.8C157.6,130.5,156.7,130.3,156.7,130.1L156.7,130.1z"/>
<path d="M166.3,130.3c-0.2,0.1-0.8,0.2-1.3,0.2h0.8c0.5,0,0.9-0.4,1-0.8l0.2-0.8C166.9,129.3,166.6,130.2,166.3,130.3z M168.3,122.7
	l1.2-6.1L168.3,122.7z"/>
<path d="M195.6,99.4l0.4,1.6c0.1,0.5-0.2,0.8-0.6,0.8 M167,128.8l1.2-6.1L167,128.8z M195.2,97.8l0.4,1.6
	C195.6,99.4,195.2,97.8,195.2,97.8z M169.5,116.6l0.3-1.6l1.3-6.2l-1.5,7L169.5,116.6L169.5,116.6z"/>
<path d="M163.6,96.7l-0.3,1.4l-3.3,15.4L163.6,96.7L163.6,96.7z M196,101l-0.4-1.6L195,97c-0.7-2.9-2.9-4.6-7.7-4.6h-7.4h-6.8h-7.7
	c-0.5,0-0.9,0.4-1,0.8l-0.9,4l-6.7,31.6c-0.1,0.5-0.1,1-0.1,1.2s0.9,0.4,1.4,0.4h6.9c0.5,0,1-0.1,1.3-0.2c0.3-0.1,0.6-1,0.7-1.5
	l2.6-13l2.8-13.2c0.1-0.5,0.5-0.8,1-0.8h21.8C195.8,101.8,196.1,101.4,196,101L196,101z M224,86.7h-1.7h-7c-0.5,0-1,0.3-1.3,0.7
	L198.6,110c-0.3,0.4-0.6,0.3-0.7-0.1l-1.1-5c-0.1-0.5-0.5-0.8-1-0.8h-9.9c-0.5,0-0.7,0.4-0.6,0.8l4.4,15.6c0.1,0.5,0.1,1.1,0,1.6
	l-1.9,7.5c-0.1,0.4,0.2,0.8,0.6,0.8h9.8c0.5,0,0.9-0.4,1-0.8l1.9-7.5c0.1-0.4,0.4-1.1,0.7-1.5L227,87.4c0.3-0.4,0.1-0.7-0.3-0.7
	L224,86.7L224,86.7z M145.2,106.2c-0.1,0.5-0.5,0.9-1,0.9h-12.6c-0.4,0-0.7-0.3-0.6-0.7l0,0l0,0l0.1-0.2c1.2-3.2,3.6-5.3,8.3-5.3
	C144.5,100.9,145.5,103.4,145.2,106.2L145.2,106.2z M141.5,91.7c-16.2,0-20,9.8-22.1,19.7c-2.1,10.1-2,19.5,14.8,19.5h0.6h0.2h1.1
	h0.2h0.6h2l10.6-0.1c0.5,0,0.9-0.4,1-0.8l1.6-7.9c0.1-0.3-0.1-0.7-0.5-0.8c-0.1,0-0.1,0-0.2,0h-15c-6,0-7.8-1.6-7.1-6.3h24
	c0.4,0,0.8-0.3,0.9-0.6c0-0.1,0-0.1,0.1-0.2C157.8,100.8,156.8,91.7,141.5,91.7L141.5,91.7z M65.1,106.2l-3.9,13.7
	c-0.2,0.5-0.6,0.8-1.1,0.8h-9.6c-7.3,0-9.1-5.7-7.3-14.1C45,98,48.4,92.7,55.6,92.1C65.5,91.3,67.5,98.2,65.1,106.2L65.1,106.2z
	 M71.7,120.2c0,0,4.5-11,5.6-17.3C78.7,94.3,74.4,82,58,82c-16.3,0-23.4,11.8-26.1,24.6c-2.7,12.9,0.8,24.2,17.1,24.1l24.8-0.1
	c0.5,0,0.9-0.4,1.1-0.8l2.1-8c0.1-0.3-0.1-0.7-0.4-0.8c-0.1,0-0.2,0-0.2,0h-4c-0.4,0-0.6-0.3-0.6-0.6
	C71.7,120.3,71.7,120.2,71.7,120.2L71.7,120.2z M152.6,112.8c0,0.3-0.2,0.6-0.6,0.6c-0.3,0-0.6-0.2-0.6-0.6l0,0
	c0-0.3,0.2-0.6,0.6-0.6C152.4,112.3,152.6,112.5,152.6,112.8z"/>
</svg>
